<svg width="209" height="152" viewBox="0 0 209 152" fill="none" xmlns="http://www.w3.org/2000/svg">
<path d="M206.959 116C208.02 117.842 208.306 120.03 207.753 122.082C207.201 124.135 205.856 125.884 204.014 126.945C203.102 127.47 202.096 127.811 201.052 127.947C200.008 128.083 198.948 128.013 197.932 127.739C195.879 127.187 194.13 125.842 193.069 124L174.069 90.8C163.032 98.2659 150.857 103.892 138.019 107.46L143.889 142.68C144.062 143.717 144.029 144.778 143.792 145.802C143.555 146.826 143.119 147.793 142.508 148.649C141.897 149.504 141.123 150.231 140.231 150.787C139.339 151.343 138.346 151.718 137.309 151.89C136.883 151.96 136.451 151.997 136.019 152C134.127 151.997 132.296 151.323 130.854 150.099C129.411 148.874 128.449 147.177 128.139 145.31L122.369 110.73C110.201 112.423 97.8572 112.423 85.6891 110.73L79.9191 145.31C79.6087 147.18 78.644 148.88 77.1971 150.105C75.7502 151.33 73.9151 152.002 72.0191 152C71.5769 151.998 71.1356 151.961 70.6991 151.89C69.6621 151.718 68.6692 151.343 67.7772 150.787C66.8852 150.231 66.1115 149.504 65.5004 148.649C64.8893 147.793 64.4528 146.826 64.2158 145.802C63.9788 144.778 63.9459 143.717 64.1191 142.68L70.0191 107.46C57.1754 103.884 44.9972 98.2474 33.9591 90.77L15.0191 124C14.4939 124.915 13.7934 125.718 12.9578 126.363C12.1223 127.007 11.1679 127.481 10.1492 127.757C9.13059 128.033 8.06758 128.105 7.02093 127.97C5.97427 127.835 4.96445 127.495 4.04914 126.97C3.13383 126.445 2.33094 125.744 1.68632 124.909C1.0417 124.073 0.567969 123.119 0.292179 122.1C0.0163891 121.081 -0.056061 120.018 0.0789661 118.972C0.213993 117.925 0.553852 116.915 1.07914 116L21.0791 81C14.0516 74.9335 7.59154 68.2391 1.77914 61C0.627991 59.5763 0 57.8009 0 55.97C0 54.1391 0.627991 52.3637 1.77914 50.94C20.5791 27.72 53.5691 0 104.019 0C154.469 0 187.459 27.72 206.239 51C207.39 52.4237 208.018 54.1991 208.018 56.03C208.018 57.8609 207.39 59.6363 206.239 61.06C200.427 68.2991 193.967 74.9935 186.939 81.06L206.959 116Z" fill="black"/>
</svg>
