<svg width="197" height="134" viewBox="0 0 197 134" fill="none" xmlns="http://www.w3.org/2000/svg">
<path d="M196.434 64.2865C196.146 63.6249 189.194 47.8882 173.738 32.1181C153.143 11.1052 127.131 0 98.5 0C69.8693 0 43.8571 11.1052 23.2624 32.1181C7.80605 47.8882 0.820755 63.65 0.566297 64.2865C0.192925 65.1434 0 66.0706 0 67.0084C0 67.9461 0.192925 68.8734 0.566297 69.7302C0.853589 70.3919 7.80605 86.1201 23.2624 101.89C43.8571 122.895 69.8693 134 98.5 134C127.131 134 153.143 122.895 173.738 101.89C189.194 86.1201 196.146 70.3919 196.434 69.7302C196.807 68.8734 197 67.9461 197 67.0084C197 66.0706 196.807 65.1434 196.434 64.2865ZM98.5 120.6C73.2347 120.6 51.1625 111.228 32.8907 92.7531C25.3936 85.1461 19.0153 76.4717 13.9541 67C19.0139 57.5274 25.3924 48.8529 32.8907 41.2469C51.1625 22.7716 73.2347 13.4 98.5 13.4C123.765 13.4 145.837 22.7716 164.109 41.2469C171.621 48.851 178.013 57.5255 183.087 67C177.169 78.2727 151.386 120.6 98.5 120.6ZM98.5 26.8C90.7074 26.8 83.0898 29.1577 76.6105 33.5749C70.1312 37.9922 65.0812 44.2705 62.0991 51.6161C59.117 58.9617 58.3368 67.0446 59.857 74.8426C61.3773 82.6407 65.1298 89.8036 70.64 95.4257C76.1502 101.048 83.1706 104.876 90.8134 106.428C98.4563 107.979 106.378 107.183 113.578 104.14C120.777 101.097 126.931 95.9448 131.26 89.3339C135.589 82.7231 137.9 74.9508 137.9 67C137.889 56.3417 133.735 46.1231 126.348 38.5866C118.961 31.05 108.946 26.8111 98.5 26.8ZM98.5 93.8C93.3049 93.8 88.2266 92.2282 83.907 89.2834C79.5875 86.3386 76.2208 82.153 74.2327 77.2559C72.2447 72.3588 71.7245 66.9703 72.738 61.7716C73.7515 56.5729 76.2532 51.7976 79.9266 48.0495C83.6001 44.3015 88.2804 41.749 93.3756 40.715C98.4709 39.6809 103.752 40.2116 108.552 42.24C113.351 44.2685 117.454 47.7035 120.34 52.1107C123.226 56.518 124.767 61.6995 124.767 67C124.767 74.1078 121.999 80.9245 117.073 85.9505C112.147 90.9764 105.466 93.8 98.5 93.8Z" fill="black"/>
</svg>
